<?xml version="1.0" encoding="UTF-8" standalone="no"?>
<!-- Created with Inkscape (http://www.inkscape.org/) -->

<svg
   width="17.581444mm"
   height="20.770111mm"
   viewBox="0 0 17.581444 20.770111"
   version="1.1"
   id="svg1"
   inkscape:export-filename="Facebook_Icon.png"
   inkscape:export-xdpi="300"
   inkscape:export-ydpi="300"
   xml:space="preserve"
   inkscape:version="1.4.3 (0d15f75, 2025-12-25)"
   sodipodi:docname="Facebook_Icon.svg"
   xmlns:inkscape="http://www.inkscape.org/namespaces/inkscape"
   xmlns:sodipodi="http://sodipodi.sourceforge.net/DTD/sodipodi-0.dtd"
   xmlns="http://www.w3.org/2000/svg"
   xmlns:svg="http://www.w3.org/2000/svg"><sodipodi:namedview
     id="namedview1"
     pagecolor="#ffffff"
     bordercolor="#000000"
     borderopacity="0.25"
     inkscape:showpageshadow="2"
     inkscape:pageopacity="0.0"
     inkscape:pagecheckerboard="0"
     inkscape:deskcolor="#d1d1d1"
     inkscape:document-units="mm"
     inkscape:zoom="8.1336326"
     inkscape:cx="48.317894"
     inkscape:cy="46.781065"
     inkscape:window-width="1920"
     inkscape:window-height="1009"
     inkscape:window-x="3832"
     inkscape:window-y="-8"
     inkscape:window-maximized="1"
     inkscape:current-layer="svg1" /><defs
     id="defs1" /><g
     id="g17"
     transform="translate(-12.344088,-1.8053895)"
     style="display:none"><path
       style="fill:#faf3dc;fill-opacity:1;stroke:none;stroke-width:0.499999;stroke-opacity:1"
       d="m 19.273752,12.247372 c 0,0 -1.141138,-0.451484 -2.521039,0.650591 -0.935943,0.747502 -0.78661,2.045997 -0.17381,2.78291 0.527508,0.634347 1.838595,0.797453 2.548466,0.274867 1.29149,-0.950757 1.187329,-2.195744 1.187329,-2.195744 L 20.298438,1.8053895 24.0556,1.8379185 c 0,0 0.107314,4.4672307 4.108447,4.3533773 0.02757,0.9690331 -0.07036,3.3470756 -0.07036,3.3470756 0,0 -2.411612,0.3506105 -3.842909,-1.0481615 0,2.8107111 -0.113854,7.0751751 -0.113854,7.0751751 0,0 -0.585531,4.667989 -6.619761,4.667989 -6.03423,0 -8.3521991,-11.9367061 1.787688,-12.0830891 0,0.510064 0.0014,0.9417215 0.0014,0.9417215 z"
       id="path17"
       sodipodi:nodetypes="cssscccccccsccc" /><path
       style="display:inline;fill:#f0d080;fill-opacity:1;stroke:none;stroke-width:0.51118;stroke-opacity:1"
       d="m 20.628079,14.589498 c 0,0 -1.192743,-0.451484 -2.635048,0.650591 -0.978269,0.747502 -0.822183,2.045997 -0.18167,2.78291 0.551363,0.634347 1.921742,0.797453 2.663716,0.274867 1.349895,-0.950757 1.241023,-2.195744 1.241023,-2.195744 l -0.017,-11.9546057 3.927073,0.032529 c 0,0 0.112167,4.4672307 4.294244,4.3533773 0.02882,0.9690336 -0.07354,3.3470754 -0.07354,3.3470754 0,0 -2.520673,0.35061 -4.016698,-1.048162 0,2.810711 -0.119003,7.075175 -0.119003,7.075175 0,0 -0.61201,4.667989 -6.919127,4.667989 -6.307117,0 -8.729912,-11.936706 1.868533,-12.083089 0,0.510064 0.0015,0.941722 0.0015,0.941722 z"
       id="path15"
       sodipodi:nodetypes="cssscccccccsccc" /><path
       style="fill:#c9a84c;fill-opacity:1;stroke:none;stroke-width:0.499999;stroke-opacity:1"
       d="m 20.184579,13.353376 c 0,0 -1.141138,-0.451484 -2.521039,0.650591 -0.935943,0.747502 -0.78661,2.045997 -0.17381,2.78291 0.527508,0.634347 1.838595,0.797453 2.548466,0.274867 1.29149,-0.950757 1.187329,-2.195744 1.187329,-2.195744 l -0.01626,-11.9546061 3.757162,0.032529 c 0,0 0.107314,4.4672308 4.108447,4.3533774 0.02757,0.9690335 -0.07036,3.3470757 -0.07036,3.3470757 0,0 -2.411612,0.35061 -3.842909,-1.0481618 0,2.8107108 -0.113854,7.0751748 -0.113854,7.0751748 0,0 -0.585531,4.667989 -6.619761,4.667989 -6.03423,0 -8.352199,-11.9367058 1.787688,-12.0830888 0,0.510064 0.0014,0.9417218 0.0014,0.9417218 z"
       id="path16"
       sodipodi:nodetypes="cssscccccccsccc"
       sodipodi:insensitive="true" /></g><path
     style="fill:#f0d080;fill-opacity:1"
     d="M 7.162249,18.338042 C 6.3997216,18.175668 5.8347833,17.982157 5.1750491,17.657359 2.9619308,16.567806 1.4081745,14.572522 0.89221071,12.157475 0.68185462,11.172872 0.67398577,9.9260301 0.8719302,8.9439691 1.2007131,7.3127795 2.0997445,5.7155393 3.2857405,4.6555369 4.328549,3.7235106 5.4576844,3.11361 6.7319068,2.794096 c 1.3074139,-0.3278368 2.6033316,-0.3278332 3.9078082,1.1e-5 2.608447,0.6555613 4.739802,2.6315699 5.587005,5.1797893 0.536747,1.61443 0.553177,3.4061517 0.04549,4.9605287 -0.411588,1.260145 -1.022143,2.253848 -1.966303,3.200235 -0.933874,0.936078 -1.945882,1.556233 -3.210085,1.967129 -0.312494,0.101568 -1.018623,0.271289 -1.1287052,0.271289 -0.014258,0 -0.025773,-1.241694 -0.025773,-2.779092 v -2.779091 h 0.9239895 0.923989 l 0.01703,-0.08218 c 0.0094,-0.0452 0.08452,-0.525935 0.167015,-1.068307 0.08249,-0.542371 0.15765,-1.023109 0.167016,-1.068306 l 0.01703,-0.08218 -1.109956,0 H 9.9374973 L 9.94747,9.5800917 c 0.00965,-0.9032514 0.012315,-0.9396992 0.081488,-1.1129104 0.09717,-0.2433219 0.342652,-0.4884719 0.584964,-0.5841783 0.16539,-0.065324 0.233887,-0.071976 0.89626,-0.087037 l 0.717185,-0.016307 V 6.7942088 5.8087588 L 12.018188,5.7734198 C 11.315966,5.6547851 10.203286,5.6253217 9.7364707,5.7130006 8.4527048,5.9541224 7.6485331,6.8312601 7.4630413,8.1927082 7.4455249,8.3212725 7.4311933,8.8961411 7.4311933,9.4701939 V 10.513926 H 6.4151814 5.3991694 v 1.150484 1.150485 h 1.016012 1.0160119 v 2.779091 2.779092 l -0.067236,-0.0032 c -0.03698,-0.0018 -0.1277485,-0.01609 -0.2017082,-0.03184 z"
     id="path18" /></svg>
